<svg aria-hidden="true" style="width:0;height:0;position:absolute;overflow:hidden" xmlns="http://www.w3.org/2000/svg"><defs><symbol id="icon-burger" viewBox="0 0 32 32"><path d="M3.498 6.936c-.218.065-.503.358-.566.582a2.376 2.376 0 0 0 0 .965c.066.235.349.515.591.585.25.072 24.699.072 24.959 0 .235-.066.515-.349.585-.591a2.284 2.284 0 0 0 0-.953c-.07-.242-.35-.525-.585-.591-.239-.066-24.762-.064-24.984.003zm0 5.333c-.218.065-.503.359-.566.583a2.376 2.376 0 0 0 0 .965c.066.235.349.515.591.585.25.072 19.367.071 19.625-.001.235-.065.517-.349.585-.59a2.29 2.29 0 0 0 0-.954c-.069-.241-.35-.525-.585-.59-.238-.066-19.429-.064-19.65.002zm-.015 5.337c-.229.066-.481.328-.547.57-.07.25-.071.727-.003.973.066.235.349.517.591.585.25.072 24.699.072 24.959 0 .235-.065.515-.349.585-.59a2.29 2.29 0 0 0 0-.954c-.07-.241-.35-.525-.585-.59-.248-.069-24.76-.064-24.999.006zm.015 5.33c-.218.065-.503.358-.566.582a2.376 2.376 0 0 0 0 .965c.066.235.349.515.591.585.25.072 19.367.071 19.625 0 .235-.066.517-.349.585-.591a2.284 2.284 0 0 0 0-.953c-.069-.242-.35-.525-.585-.591-.238-.066-19.429-.063-19.65.003z"/></symbol><symbol id="icon-x" viewBox="0 0 32 32"><path stroke-linejoin="round" stroke-linecap="round" stroke-width="5.333" d="M28.444 3.556 3.555 28.445m.001-24.889 24.889 24.889"/></symbol><symbol id="icon-mail" viewBox="0 0 38 32"><path stroke-linejoin="round" stroke-linecap="round" stroke-width="2.909" d="M35.031 26.182 23.758 16m-9.697 0L2.788 26.182M1.939 7.516l13.856 9.699c1.123.785 1.683 1.178 2.294 1.329a3.38 3.38 0 0 0 1.642 0c.609-.151 1.171-.544 2.292-1.329l13.856-9.699M10.084 29.575h17.649c2.851 0 4.276 0 5.366-.554a5.13 5.13 0 0 0 2.212-2.197l.013-.028c.553-1.088.553-2.515.553-5.366V10.57c0-2.851 0-4.276-.553-5.367a5.132 5.132 0 0 0-2.197-2.211l-.028-.013c-1.089-.554-2.515-.554-5.367-.554H10.087c-2.851 0-4.276 0-5.367.554a5.132 5.132 0 0 0-2.211 2.197l-.013.028C1.94 6.292 1.94 7.717 1.94 10.57v10.86c0 2.851 0 4.276.556 5.367a5.132 5.132 0 0 0 2.197 2.211l.028.013c1.088.554 2.513.554 5.366.554z"/></symbol><symbol id="icon-lock" viewBox="0 0 32 32"><path stroke-linejoin="round" stroke-linecap="round" stroke-width="2.667" d="M23.777 14.444V9.777a7.777 7.777 0 0 0-15.554 0v4.667M9.467 30h13.067c2.613 0 3.92 0 4.919-.508a4.707 4.707 0 0 0 2.028-2.014l.012-.026c.508-.999.508-2.305.508-4.919v-.623c0-2.613 0-3.92-.508-4.919a4.707 4.707 0 0 0-2.014-2.028l-.026-.012c-.999-.507-2.305-.507-4.919-.507H9.467c-2.613 0-3.92 0-4.919.507a4.707 4.707 0 0 0-2.028 2.014l-.012.026C2 17.991 2 19.298 2 21.911v.621c0 2.613 0 3.92.508 4.919a4.707 4.707 0 0 0 2.014 2.028l.026.012c.999.508 2.305.508 4.919.508z"/></symbol><symbol id="icon-arrow-right" viewBox="0 0 43 32"><path fill="none" stroke="#eac645" style="stroke:var(--color1,#eac645)" stroke-linejoin="round" stroke-linecap="round" stroke-width="5.333" d="M3.555 16h35.557m0 0L25.779 2.667M39.112 16 25.779 29.333"/></symbol><symbol id="icon-logo" viewBox="0 0 126 32"><path fill="#f6f6f6" style="fill:var(--color2,#f6f6f6)" d="m0 2.286 14.008 13.862 13.421 13.567V2.286H0z"/><path fill="#f6f6f6" style="fill:var(--color2,#f6f6f6)" d="m3.821 5.91 10.237 10.139 9.649 9.845H3.821V5.91z"/><path fill="#4f2ee8" style="fill:var(--color3,#4f2ee8)" d="M23.771 25.959 13.534 15.82 3.885 5.975h19.886v19.984z"/><path fill="#4f2ee8" style="fill:var(--color3,#4f2ee8)" d="m7.935 10.024 11.657 11.658H7.935V10.025z"/><path fill="#f6f6f6" style="fill:var(--color2,#f6f6f6)" d="m7.935 10.024 11.657 11.658V10.025H7.935z"/><path style="fill:var(--color4,#000)" d="M47.659 12.266c0-2.366-1.749-3.703-4.773-3.703h-6.315v14.709h6.665c3.045 0 4.999-1.461 4.999-4.299 0-2.201-1.317-3.333-2.859-3.6v-.041c1.214-.411 2.283-1.255 2.283-3.065zm-8.64 2.387v-4.011h3.929c1.461 0 2.263.72 2.263 2.016s-.658 1.995-2.407 1.995h-3.785zm0 1.83h4.299c1.543 0 2.469.843 2.469 2.345 0 1.378-.638 2.366-2.736 2.366h-4.032v-4.711zm15.498 7.098c-3.291 0-5.287-2.283-5.287-5.554s1.995-5.554 5.287-5.554c3.291 0 5.287 2.283 5.287 5.554s-1.995 5.554-5.287 5.554zm0-1.77c2.057 0 3.127-1.625 3.127-3.785 0-2.181-1.07-3.785-3.127-3.785s-3.127 1.605-3.127 3.785c0 2.16 1.07 3.785 3.127 3.785zm11.51 1.77c-3.291 0-5.287-2.283-5.287-5.554s1.995-5.554 5.287-5.554c3.291 0 5.287 2.283 5.287 5.554s-1.995 5.554-5.287 5.554zm0-1.77c2.057 0 3.127-1.625 3.127-3.785 0-2.181-1.07-3.785-3.127-3.785S62.9 15.846 62.9 18.026c0 2.16 1.07 3.785 3.127 3.785zm6.78-13.248v14.709h2.16v-3.806l1.461-1.378 3.312 5.184h2.592l-4.423-6.603L81.9 12.76h-2.654l-4.279 4.217V8.563h-2.16zm14.731 8.352c-1.522-.35-2.695-.432-2.695-1.502 0-.741.699-1.234 1.995-1.234 1.687 0 2.098.843 2.242 1.666h2.098c-.144-1.831-1.502-3.374-4.361-3.374-2.633 0-4.155 1.378-4.155 3.106 0 2.386 2.263 2.715 3.929 3.106 1.543.37 2.798.473 2.798 1.79 0 .658-.638 1.399-2.139 1.399-2.222 0-2.715-.967-2.818-2.098h-2.098c.103 2.222 1.563 3.806 4.958 3.806 2.551 0 4.279-1.255 4.279-3.271 0-2.51-2.098-2.942-4.032-3.394zm11.095-4.443c-1.769 0-2.859.823-3.415 1.646h-.041V8.564h-2.16v14.709h2.16v-6.398c0-1.563 1.131-2.571 2.715-2.571 1.502 0 2.098.905 2.098 2.325v6.645h2.181v-7.262c0-2.407-1.543-3.538-3.538-3.538zm10.162 9.339c-1.913 0-3.045-1.461-3.045-3.23h8.064c0-3.744-1.666-6.11-5.061-6.11-3.168 0-5.163 2.139-5.163 5.554 0 3.291 1.995 5.554 5.266 5.554 2.695 0 4.258-1.522 4.793-3.518h-2.16c-.185.638-.905 1.749-2.695 1.749zm-.041-7.632c1.749 0 2.901 1.173 2.901 2.798h-5.904c0-1.625 1.255-2.798 3.003-2.798zm6.583-5.616v14.709h2.181V8.563h-2.181zm9.236 1.77V8.564a7.32 7.32 0 0 0-1.438-.144h-.002c-1.728 0-2.674.782-2.674 3.003v1.337h-1.502v1.769h1.502v8.743h2.181v-8.743h1.934V12.76h-1.934v-1.152c0-1.193.535-1.337 1.934-1.275z"/></symbol><symbol id="icon-logo-dark" viewBox="0 0 126 32"><path fill="#f6f6f6" style="fill:var(--color2,#f6f6f6)" d="m0 2.286 14.008 13.862 13.421 13.567V2.286H0z"/><path fill="#f6f6f6" style="fill:var(--color2,#f6f6f6)" d="m3.821 5.91 10.237 10.139 9.649 9.845H3.821V5.91z"/><path fill="#4f2ee8" style="fill:var(--color3,#4f2ee8)" d="M23.771 25.959 13.534 15.82 3.885 5.975h19.886v19.984z"/><path fill="#4f2ee8" style="fill:var(--color3,#4f2ee8)" d="m7.935 10.024 11.657 11.658H7.935V10.025z"/><path fill="#f6f6f6" style="fill:var(--color2,#f6f6f6)" d="m7.935 10.024 11.657 11.658V10.025H7.935z"/><path style="fill:var(--color4,#f3f3f3)" d="M47.659 12.266c0-2.366-1.749-3.703-4.773-3.703h-6.315v14.709h6.665c3.045 0 4.999-1.461 4.999-4.299 0-2.201-1.317-3.333-2.859-3.6v-.041c1.214-.411 2.283-1.255 2.283-3.065zm-8.64 2.387v-4.011h3.929c1.461 0 2.263.72 2.263 2.016s-.658 1.995-2.407 1.995h-3.785zm0 1.83h4.299c1.543 0 2.469.843 2.469 2.345 0 1.378-.638 2.366-2.736 2.366h-4.032v-4.711zm15.498 7.098c-3.291 0-5.287-2.283-5.287-5.554s1.995-5.554 5.287-5.554c3.291 0 5.287 2.283 5.287 5.554s-1.995 5.554-5.287 5.554zm0-1.77c2.057 0 3.127-1.625 3.127-3.785 0-2.181-1.07-3.785-3.127-3.785s-3.127 1.605-3.127 3.785c0 2.16 1.07 3.785 3.127 3.785zm11.51 1.77c-3.291 0-5.287-2.283-5.287-5.554s1.995-5.554 5.287-5.554c3.291 0 5.287 2.283 5.287 5.554s-1.995 5.554-5.287 5.554zm0-1.77c2.057 0 3.127-1.625 3.127-3.785 0-2.181-1.07-3.785-3.127-3.785S62.9 15.846 62.9 18.026c0 2.16 1.07 3.785 3.127 3.785zm6.78-13.248v14.709h2.16v-3.806l1.461-1.378 3.312 5.184h2.592l-4.423-6.603L81.9 12.76h-2.654l-4.279 4.217V8.563h-2.16zm14.731 8.352c-1.522-.35-2.695-.432-2.695-1.502 0-.741.699-1.234 1.995-1.234 1.687 0 2.098.843 2.242 1.666h2.098c-.144-1.831-1.502-3.374-4.361-3.374-2.633 0-4.155 1.378-4.155 3.106 0 2.386 2.263 2.715 3.929 3.106 1.543.37 2.798.473 2.798 1.79 0 .658-.638 1.399-2.139 1.399-2.222 0-2.715-.967-2.818-2.098h-2.098c.103 2.222 1.563 3.806 4.958 3.806 2.551 0 4.279-1.255 4.279-3.271 0-2.51-2.098-2.942-4.032-3.394zm11.095-4.443c-1.769 0-2.859.823-3.415 1.646h-.041V8.564h-2.16v14.709h2.16v-6.398c0-1.563 1.131-2.571 2.715-2.571 1.502 0 2.098.905 2.098 2.325v6.645h2.181v-7.262c0-2.407-1.543-3.538-3.538-3.538zm10.162 9.339c-1.913 0-3.045-1.461-3.045-3.23h8.064c0-3.744-1.666-6.11-5.061-6.11-3.168 0-5.163 2.139-5.163 5.554 0 3.291 1.995 5.554 5.266 5.554 2.695 0 4.258-1.522 4.793-3.518h-2.16c-.185.638-.905 1.749-2.695 1.749zm-.041-7.632c1.749 0 2.901 1.173 2.901 2.798h-5.904c0-1.625 1.255-2.798 3.003-2.798zm6.583-5.616v14.709h2.181V8.563h-2.181zm9.236 1.77V8.564a7.32 7.32 0 0 0-1.438-.144h-.002c-1.728 0-2.674.782-2.674 3.003v1.337h-1.502v1.769h1.502v8.743h2.181v-8.743h1.934V12.76h-1.934v-1.152c0-1.193.535-1.337 1.934-1.275z"/></symbol><symbol id="icon-arrow-up" viewBox="0 0 55 32"><path fill="#fff" style="fill:var(--color5,#fff)" d="M1.091 25.309 25.527.8c.291-.291.605-.495.945-.617S27.176 0 27.563 0s.751.061 1.091.183c.371.139.687.349.945.616L29.6.8l24.509 24.509c.678.678 1.018 1.527 1.018 2.545s-.364 1.891-1.091 2.618a3.486 3.486 0 0 1-2.535 1.091h-.011.001-.01a3.482 3.482 0 0 1-2.534-1.089l-.001-.002L27.564 9.09 6.182 30.472c-.678.678-1.513 1.018-2.508 1.018s-1.856-.364-2.583-1.091A3.486 3.486 0 0 1 0 27.864v-.011.001-.01c0-.998.418-1.897 1.089-2.534l.002-.001z"/></symbol><symbol id="icon-user" viewBox="0 0 23 32"><path fill="#4f2ee8" style="fill:var(--color3,#4f2ee8)" d="M.297 30.964c.112-6.132 5.11-11.06 11.259-11.06s11.146 4.928 11.258 11.05v.011H.297zm11.259-12.667h-.002a8.443 8.443 0 0 1-8.443-8.443V9.85a8.443 8.443 0 0 1 8.443-8.443h.004a8.443 8.443 0 0 1 8.443 8.443v.004a8.443 8.443 0 0 1-8.443 8.443h-.002z"/></symbol><symbol id="icon-arrow-down" viewBox="0 0 60 32"><path fill="#fff" style="fill:var(--color5,#fff)" d="M3.168 3h53.664l-24.12 27.268a3.62 3.62 0 0 1-2.71 1.272H30a3.615 3.615 0 0 1-2.704-1.267l-.004-.005L3.168 3z"/></symbol><symbol id="icon-arrow-down-support" viewBox="0 0 32 32"><path d="M15.053 17.867a1.334 1.334 0 0 0 1.894 0l6.107-6.12a1.334 1.334 0 1 1 1.894 1.88l-6.12 6.12a4.001 4.001 0 0 1-5.654 0l-6.12-6.12a1.337 1.337 0 0 1 .434-2.172 1.331 1.331 0 0 1 1.46.292l6.107 6.12z"/></symbol><symbol id="icon-shop" viewBox="0 0 25 32"><path d="M22.814 8.592H18.37V7.111a5.925 5.925 0 0 0-11.85 0v1.481H2.074a1.48 1.48 0 0 0-1.481 1.481V26.37a4.444 4.444 0 0 0 4.444 4.444h14.816a4.444 4.444 0 0 0 4.444-4.444V10.073a1.48 1.48 0 0 0-1.481-1.481h-.002zM9.481 7.111a2.964 2.964 0 1 1 5.928 0v1.481H9.482V7.111zM21.333 26.37v.002a1.48 1.48 0 0 1-1.481 1.481H5.036a1.48 1.48 0 0 1-1.481-1.481V11.556h2.964v1.481a1.48 1.48 0 1 0 2.962 0v-1.481h5.927v1.481a1.48 1.48 0 1 0 2.962 0v-1.481h2.964V26.37z"/></symbol><symbol id="icon-gerb" viewBox="0 0 20 32"><path fill="#fff" style="fill:var(--color5,#fff)" d="M9.005 30.888A8.656 8.656 0 0 1 5.6 25.592l-.009-.055H0V2.42c2.991 1.443 5.153 4.6 5.388 7.876l.845 6.493-.407-.045c-.893 0-1.676.812-1.676 1.608 0 .752.595 1.383 1.379 1.548l1.018.226c1.675-3.051 2.63-6.042 2.63-8.973 0-2.646-.36-5.291-.422-7.997 0-1.202.485-2.3 1.253-3.156.783.857 1.253 1.954 1.253 3.156 0 2.706-.423 5.351-.423 7.997 0 2.93.955 5.922 2.631 8.973l1.018-.226c.783-.165 1.378-.811 1.378-1.548 0-.811-.783-1.608-1.675-1.608l-.423.06.845-6.493C15.035 7.034 17.01 3.863 20 2.435v23.117h-5.576c-.422 2.18-1.613 4.148-3.414 5.35-.423.286-.783.632-1.018 1.098-.22-.466-.58-.812-.987-1.112zM2.647 17.556c.235-.857.893-1.609 1.738-2.075l-.658-5.35a8.283 8.283 0 0 0-2.043-4.382l.007.008V17.54h.956v.015zm2.819 6.373c0-.812.125-1.548.298-2.3l-.784-.18c-1.143-.346-2.036-1.203-2.333-2.3H1.69v4.78h3.775zm3.712 0c0-.977-.783-1.834-1.801-1.954-.173.63-.298 1.262-.298 1.954h2.099zm0 1.623H7.314c.298 1.262.955 2.42 1.864 3.397v-3.397zm2.63-5.005c-.72-1.263-1.377-2.585-1.8-3.968-.423 1.383-1.08 2.705-1.801 3.968.72.165 1.315.631 1.8 1.157.486-.526 1.082-.992 1.802-1.157zm1.144 3.382c0-.692-.125-1.323-.297-1.954-1.018.12-1.801.977-1.801 1.954h2.098zm-.235 1.623h-1.863v3.397c.908-.992 1.566-2.135 1.863-3.397zm5.623-1.623v-4.78h-.956c-.297 1.097-1.206 1.954-2.333 2.3l-.783.18c.172.752.297 1.488.297 2.3h3.775zm0-6.373v-11.8c-1.08 1.203-1.864 2.706-2.036 4.375l-.658 5.35c.846.466 1.504 1.203 1.738 2.075h.956z"/></symbol><symbol id="icon-arrow-down2" viewBox="0 0 56 32"><path fill="#4f2ee8" style="fill:var(--color3,#4f2ee8)" d="M25.4 21.132c.664.668 1.584 1.081 2.6 1.081s1.936-.413 2.6-1.081L47.4 4.304a3.666 3.666 0 1 1 5.2 5.168L35.776 26.304c-1.99 1.987-4.738 3.216-7.772 3.216s-5.782-1.229-7.772-3.216L3.396 9.472a3.668 3.668 0 1 1 5.208-5.168l16.792 16.828z"/></symbol><symbol id="icon-trash" viewBox="0 0 32 32"><path fill="#4f2ee8" stroke="#fff" style="stroke:var(--color1,#fff)" stroke-linejoin="round" stroke-linecap="round" stroke-width="2" d="M12 4h8M4 8h24m-2.667 0-.935 14.026c-.14 2.104-.21 3.156-.665 3.954a4.007 4.007 0 0 1-1.731 1.62c-.826.4-1.881.4-3.99.4h-4.025c-2.109 0-3.163 0-3.99-.4a4.001 4.001 0 0 1-1.731-1.62c-.455-.798-.525-1.85-.665-3.954L6.666 8m6.667 6v6.667M18.667 14v6.667"/></symbol><symbol id="icon-icon-up2" viewBox="0 0 32 32"><path fill="#4f2ee8" style="fill:var(--color1,#4f2ee8)" opacity=".3" d="M32 16c0 8.837-7.163 16-16 16S0 24.837 0 16 7.163 0 16 0s16 7.163 16 16z"/><path fill="#4f2ee8" style="fill:var(--color1,#4f2ee8)" d="M29.5 16c0 7.456-6.044 13.5-13.5 13.5S2.5 23.456 2.5 16 8.544 2.5 16 2.5 29.5 8.544 29.5 16z"/><path fill="#fff" style="fill:var(--color2,#fff)" d="m11.687 17.35 4.2-4.213c.05-.05.104-.085.162-.106s.121-.031.188-.031.129.011.188.031.113.056.163.106L20.8 17.35c.117.117.175.262.175.438s-.063.325-.188.45a.6.6 0 0 1-.876 0l-3.675-3.675-3.675 3.675c-.117.117-.26.175-.431.175s-.319-.063-.444-.188a.6.6 0 0 1 0-.876z"/></symbol></defs></svg>