<svg aria-hidden="true" style="position: absolute; width: 0; height: 0; overflow: hidden;" version="1.1" xmlns="http://www.w3.org/2000/svg" xmlns:xlink="http://www.w3.org/1999/xlink">
<defs>
<symbol id="icon-burger" viewBox="0 0 32 32">
<title>burger</title>
<path d="M3.498 6.936c-0.218 0.065-0.503 0.358-0.566 0.582-0.066 0.242-0.066 0.722 0 0.965 0.066 0.235 0.349 0.515 0.591 0.585 0.25 0.072 24.699 0.072 24.959 0 0.235-0.066 0.515-0.349 0.585-0.591 0.067-0.234 0.067-0.719 0-0.953-0.070-0.242-0.35-0.525-0.585-0.591-0.239-0.066-24.762-0.064-24.984 0.003zM3.498 12.269c-0.218 0.065-0.503 0.359-0.566 0.583-0.066 0.242-0.066 0.722 0 0.965 0.066 0.235 0.349 0.515 0.591 0.585 0.25 0.072 19.367 0.071 19.625-0.001 0.235-0.065 0.517-0.349 0.585-0.59 0.067-0.234 0.067-0.719 0-0.954-0.069-0.241-0.35-0.525-0.585-0.59-0.238-0.066-19.429-0.064-19.65 0.002zM3.483 17.606c-0.229 0.066-0.481 0.328-0.547 0.57-0.070 0.25-0.071 0.727-0.003 0.973 0.066 0.235 0.349 0.517 0.591 0.585 0.25 0.072 24.699 0.072 24.959 0 0.235-0.065 0.515-0.349 0.585-0.59 0.067-0.235 0.067-0.72 0-0.954-0.070-0.241-0.35-0.525-0.585-0.59-0.248-0.069-24.76-0.064-24.999 0.006zM3.498 22.936c-0.218 0.065-0.503 0.358-0.566 0.582-0.066 0.242-0.066 0.722 0 0.965 0.066 0.235 0.349 0.515 0.591 0.585 0.25 0.072 19.367 0.071 19.625 0 0.235-0.066 0.517-0.349 0.585-0.591 0.067-0.234 0.067-0.719 0-0.953-0.069-0.242-0.35-0.525-0.585-0.591-0.238-0.066-19.429-0.063-19.65 0.003z"></path>
</symbol>
<symbol id="icon-x" viewBox="0 0 32 32">
<path stroke-linejoin="round" stroke-linecap="round" stroke-miterlimit="4" stroke-width="5.3333" d="M28.444 3.556l-24.889 24.889M3.556 3.556l24.889 24.889"></path>
</symbol>
<symbol id="icon-mail" viewBox="0 0 38 32">
<path stroke-linejoin="round" stroke-linecap="round" stroke-miterlimit="4" stroke-width="2.9091" d="M35.031 26.182l-11.273-10.182M14.061 16l-11.273 10.182M1.939 7.516l13.856 9.699c1.123 0.785 1.683 1.178 2.294 1.329 0.538 0.135 1.103 0.135 1.642 0 0.609-0.151 1.171-0.544 2.292-1.329l13.856-9.699M10.084 29.575h17.649c2.851 0 4.276 0 5.366-0.554 0.963-0.498 1.728-1.263 2.212-2.197l0.013-0.028c0.553-1.088 0.553-2.515 0.553-5.366v-10.86c0-2.851 0-4.276-0.553-5.367-0.498-0.962-1.263-1.727-2.197-2.211l-0.028-0.013c-1.089-0.554-2.515-0.554-5.367-0.554h-17.645c-2.851 0-4.276 0-5.367 0.554-0.962 0.498-1.727 1.263-2.211 2.197l-0.013 0.028c-0.556 1.088-0.556 2.513-0.556 5.366v10.86c0 2.851 0 4.276 0.556 5.367 0.498 0.962 1.263 1.727 2.197 2.211l0.028 0.013c1.088 0.554 2.513 0.554 5.366 0.554z"></path>
</symbol>
<symbol id="icon-lock" viewBox="0 0 32 32">
<path stroke-linejoin="round" stroke-linecap="round" stroke-miterlimit="4" stroke-width="2.6667" d="M23.777 14.444v-4.667c0-4.295-3.482-7.777-7.777-7.777s-7.777 3.482-7.777 7.777v0 4.667M9.467 30h13.067c2.613 0 3.92 0 4.919-0.508 0.882-0.456 1.584-1.158 2.028-2.014l0.012-0.026c0.508-0.999 0.508-2.305 0.508-4.919v-0.623c0-2.613 0-3.92-0.508-4.919-0.456-0.882-1.158-1.584-2.014-2.028l-0.026-0.012c-0.999-0.507-2.305-0.507-4.919-0.507h-13.067c-2.613 0-3.92 0-4.919 0.507-0.882 0.456-1.584 1.158-2.028 2.014l-0.012 0.026c-0.508 1-0.508 2.307-0.508 4.92v0.621c0 2.613 0 3.92 0.508 4.919 0.456 0.882 1.158 1.584 2.014 2.028l0.026 0.012c0.999 0.508 2.305 0.508 4.919 0.508z"></path>
</symbol>
<symbol id="icon-arrow-right" viewBox="0 0 43 32">
<path fill="none" stroke="#eac645" style="stroke: var(--color1, #eac645)" stroke-linejoin="round" stroke-linecap="round" stroke-miterlimit="4" stroke-width="5.3333" d="M3.555 16h35.557M39.112 16l-13.333-13.333M39.112 16l-13.333 13.333"></path>
</symbol>
<symbol id="icon-logo" viewBox="0 0 126 32">
<path fill="#f6f6f6" style="fill: var(--color2, #f6f6f6)" d="M0 2.286l14.008 13.862 13.421 13.567v-27.429h-27.429z"></path>
<path fill="#f6f6f6" style="fill: var(--color2, #f6f6f6)" d="M3.821 5.91l10.237 10.139 9.649 9.845h-19.886v-19.984z"></path>
<path fill="#4f2ee8" style="fill: var(--color3, #4f2ee8)" d="M23.771 25.959l-10.237-10.139-9.649-9.845h19.886v19.984z"></path>
<path fill="#4f2ee8" style="fill: var(--color3, #4f2ee8)" d="M7.935 10.024l11.657 11.658h-11.657v-11.657z"></path>
<path fill="#f6f6f6" style="fill: var(--color2, #f6f6f6)" d="M7.935 10.024l11.657 11.658v-11.657h-11.657z"></path>
<path fill="#000" style="fill: var(--color4, #000)" d="M47.659 12.266c0-2.366-1.749-3.703-4.773-3.703h-6.315v14.709h6.665c3.045 0 4.999-1.461 4.999-4.299 0-2.201-1.317-3.333-2.859-3.6v-0.041c1.214-0.411 2.283-1.255 2.283-3.065zM39.019 14.653v-4.011h3.929c1.461 0 2.263 0.72 2.263 2.016s-0.658 1.995-2.407 1.995h-3.785zM39.019 16.483h4.299c1.543 0 2.469 0.843 2.469 2.345 0 1.378-0.638 2.366-2.736 2.366h-4.032v-4.711zM54.517 23.581c-3.291 0-5.287-2.283-5.287-5.554s1.995-5.554 5.287-5.554c3.291 0 5.287 2.283 5.287 5.554s-1.995 5.554-5.287 5.554zM54.517 21.811c2.057 0 3.127-1.625 3.127-3.785 0-2.181-1.070-3.785-3.127-3.785s-3.127 1.605-3.127 3.785c0 2.16 1.070 3.785 3.127 3.785zM66.027 23.581c-3.291 0-5.287-2.283-5.287-5.554s1.995-5.554 5.287-5.554c3.291 0 5.287 2.283 5.287 5.554s-1.995 5.554-5.287 5.554zM66.027 21.811c2.057 0 3.127-1.625 3.127-3.785 0-2.181-1.070-3.785-3.127-3.785s-3.127 1.605-3.127 3.785c0 2.16 1.070 3.785 3.127 3.785zM72.807 8.563v14.709h2.16v-3.806l1.461-1.378 3.312 5.184h2.592l-4.423-6.603 3.991-3.909h-2.654l-4.279 4.217v-8.414h-2.16zM87.538 16.915c-1.522-0.35-2.695-0.432-2.695-1.502 0-0.741 0.699-1.234 1.995-1.234 1.687 0 2.098 0.843 2.242 1.666h2.098c-0.144-1.831-1.502-3.374-4.361-3.374-2.633 0-4.155 1.378-4.155 3.106 0 2.386 2.263 2.715 3.929 3.106 1.543 0.37 2.798 0.473 2.798 1.79 0 0.658-0.638 1.399-2.139 1.399-2.222 0-2.715-0.967-2.818-2.098h-2.098c0.103 2.222 1.563 3.806 4.958 3.806 2.551 0 4.279-1.255 4.279-3.271 0-2.51-2.098-2.942-4.032-3.394zM98.633 12.472c-1.769 0-2.859 0.823-3.415 1.646h-0.041v-5.554h-2.16v14.709h2.16v-6.398c0-1.563 1.131-2.571 2.715-2.571 1.502 0 2.098 0.905 2.098 2.325v6.645h2.181v-7.262c0-2.407-1.543-3.538-3.538-3.538zM108.795 21.811c-1.913 0-3.045-1.461-3.045-3.23h8.064c0-3.744-1.666-6.11-5.061-6.11-3.168 0-5.163 2.139-5.163 5.554 0 3.291 1.995 5.554 5.266 5.554 2.695 0 4.258-1.522 4.793-3.518h-2.16c-0.185 0.638-0.905 1.749-2.695 1.749zM108.754 14.179c1.749 0 2.901 1.173 2.901 2.798h-5.904c0-1.625 1.255-2.798 3.003-2.798zM115.337 8.563v14.709h2.181v-14.709h-2.181zM124.573 10.333v-1.769c-0.432-0.090-0.929-0.142-1.438-0.144h-0.002c-1.728 0-2.674 0.782-2.674 3.003v1.337h-1.502v1.769h1.502v8.743h2.181v-8.743h1.934v-1.769h-1.934v-1.152c0-1.193 0.535-1.337 1.934-1.275z"></path>
</symbol>
<symbol id="icon-logo-dark" viewBox="0 0 126 32">
<path fill="#f6f6f6" style="fill: var(--color2, #f6f6f6)" d="M0 2.286l14.008 13.862 13.421 13.567v-27.429h-27.429z"></path>
<path fill="#f6f6f6" style="fill: var(--color2, #f6f6f6)" d="M3.821 5.91l10.237 10.139 9.649 9.845h-19.886v-19.984z"></path>
<path fill="#4f2ee8" style="fill: var(--color3, #4f2ee8)" d="M23.771 25.959l-10.237-10.139-9.649-9.845h19.886v19.984z"></path>
<path fill="#4f2ee8" style="fill: var(--color3, #4f2ee8)" d="M7.935 10.024l11.657 11.658h-11.657v-11.657z"></path>
<path fill="#f6f6f6" style="fill: var(--color2, #f6f6f6)" d="M7.935 10.024l11.657 11.658v-11.657h-11.657z"></path>
<path fill="#000" style="fill: var(--color4, #f3f3f3)" d="M47.659 12.266c0-2.366-1.749-3.703-4.773-3.703h-6.315v14.709h6.665c3.045 0 4.999-1.461 4.999-4.299 0-2.201-1.317-3.333-2.859-3.6v-0.041c1.214-0.411 2.283-1.255 2.283-3.065zM39.019 14.653v-4.011h3.929c1.461 0 2.263 0.72 2.263 2.016s-0.658 1.995-2.407 1.995h-3.785zM39.019 16.483h4.299c1.543 0 2.469 0.843 2.469 2.345 0 1.378-0.638 2.366-2.736 2.366h-4.032v-4.711zM54.517 23.581c-3.291 0-5.287-2.283-5.287-5.554s1.995-5.554 5.287-5.554c3.291 0 5.287 2.283 5.287 5.554s-1.995 5.554-5.287 5.554zM54.517 21.811c2.057 0 3.127-1.625 3.127-3.785 0-2.181-1.070-3.785-3.127-3.785s-3.127 1.605-3.127 3.785c0 2.16 1.070 3.785 3.127 3.785zM66.027 23.581c-3.291 0-5.287-2.283-5.287-5.554s1.995-5.554 5.287-5.554c3.291 0 5.287 2.283 5.287 5.554s-1.995 5.554-5.287 5.554zM66.027 21.811c2.057 0 3.127-1.625 3.127-3.785 0-2.181-1.070-3.785-3.127-3.785s-3.127 1.605-3.127 3.785c0 2.16 1.070 3.785 3.127 3.785zM72.807 8.563v14.709h2.16v-3.806l1.461-1.378 3.312 5.184h2.592l-4.423-6.603 3.991-3.909h-2.654l-4.279 4.217v-8.414h-2.16zM87.538 16.915c-1.522-0.35-2.695-0.432-2.695-1.502 0-0.741 0.699-1.234 1.995-1.234 1.687 0 2.098 0.843 2.242 1.666h2.098c-0.144-1.831-1.502-3.374-4.361-3.374-2.633 0-4.155 1.378-4.155 3.106 0 2.386 2.263 2.715 3.929 3.106 1.543 0.37 2.798 0.473 2.798 1.79 0 0.658-0.638 1.399-2.139 1.399-2.222 0-2.715-0.967-2.818-2.098h-2.098c0.103 2.222 1.563 3.806 4.958 3.806 2.551 0 4.279-1.255 4.279-3.271 0-2.51-2.098-2.942-4.032-3.394zM98.633 12.472c-1.769 0-2.859 0.823-3.415 1.646h-0.041v-5.554h-2.16v14.709h2.16v-6.398c0-1.563 1.131-2.571 2.715-2.571 1.502 0 2.098 0.905 2.098 2.325v6.645h2.181v-7.262c0-2.407-1.543-3.538-3.538-3.538zM108.795 21.811c-1.913 0-3.045-1.461-3.045-3.23h8.064c0-3.744-1.666-6.11-5.061-6.11-3.168 0-5.163 2.139-5.163 5.554 0 3.291 1.995 5.554 5.266 5.554 2.695 0 4.258-1.522 4.793-3.518h-2.16c-0.185 0.638-0.905 1.749-2.695 1.749zM108.754 14.179c1.749 0 2.901 1.173 2.901 2.798h-5.904c0-1.625 1.255-2.798 3.003-2.798zM115.337 8.563v14.709h2.181v-14.709h-2.181zM124.573 10.333v-1.769c-0.432-0.090-0.929-0.142-1.438-0.144h-0.002c-1.728 0-2.674 0.782-2.674 3.003v1.337h-1.502v1.769h1.502v8.743h2.181v-8.743h1.934v-1.769h-1.934v-1.152c0-1.193 0.535-1.337 1.934-1.275z"></path>
</symbol>

<symbol id="icon-arrow-up" viewBox="0 0 55 32">
<path fill="#fff" style="fill: var(--color5, #fff)" d="M1.091 25.309l24.436-24.509c0.291-0.291 0.605-0.495 0.945-0.617s0.704-0.183 1.091-0.183 0.751 0.061 1.091 0.183c0.371 0.139 0.687 0.349 0.945 0.616l0.001 0.001 24.509 24.509c0.678 0.678 1.018 1.527 1.018 2.545s-0.364 1.891-1.091 2.618c-0.638 0.672-1.538 1.091-2.535 1.091-0.004 0-0.007 0-0.011-0h0.001c-0.003 0-0.007 0-0.010 0-0.998 0-1.897-0.418-2.534-1.089l-0.001-0.002-21.382-21.382-21.382 21.382c-0.678 0.678-1.513 1.018-2.508 1.018s-1.856-0.364-2.583-1.091c-0.672-0.638-1.091-1.538-1.091-2.535 0-0.004 0-0.007 0-0.011v0.001c0-0.003 0-0.007 0-0.010 0-0.998 0.418-1.897 1.089-2.534l0.002-0.001z"></path>
</symbol>
<symbol id="icon-user" viewBox="0 0 23 32">
<path fill="#4f2ee8" style="fill: var(--color3, #4f2ee8)" d="M0.297 30.964c0.112-6.132 5.11-11.060 11.259-11.060s11.146 4.928 11.258 11.050l0 0.011h-22.517zM11.556 18.297c-0.001 0-0.001 0-0.002 0-4.663 0-8.443-3.78-8.443-8.443 0-0.001 0-0.001 0-0.002v0c0-0.001 0-0.001 0-0.002 0-4.663 3.78-8.443 8.443-8.443 0.001 0 0.001 0 0.002 0h-0c0.001 0 0.001 0 0.002 0 4.663 0 8.443 3.78 8.443 8.443 0 0.001 0 0.001 0 0.002v-0c0 0.001 0 0.001 0 0.002 0 4.663-3.78 8.443-8.443 8.443-0.001 0-0.001 0-0.002 0h0z"></path>
</symbol>
<symbol id="icon-arrow-down" viewBox="0 0 60 32">
<path fill="#fff" style="fill: var(--color5, #fff)" d="M3.168 3h53.664l-24.12 27.268c-0.659 0.769-1.627 1.258-2.71 1.272l-0.002 0c-1.083-0.015-2.050-0.503-2.704-1.267l-0.004-0.005-24.124-27.268z"></path>
</symbol>
<symbol id="icon-shop" viewBox="0 0 25 32">
<path d="M22.814 8.592h-4.444v-1.481c0-3.272-2.653-5.925-5.925-5.925s-5.925 2.653-5.925 5.925v0 1.481h-4.444c-0.001 0-0.001 0-0.002 0-0.818 0-1.481 0.663-1.481 1.481 0 0.001 0 0.001 0 0.002v-0 16.295c0 2.455 1.99 4.444 4.444 4.444v0h14.816c2.455 0 4.444-1.99 4.444-4.444v0-16.295c0-0.001 0-0.001 0-0.002 0-0.818-0.663-1.481-1.481-1.481-0.001 0-0.001 0-0.002 0h0zM9.481 7.111c0-1.637 1.327-2.964 2.964-2.964s2.964 1.327 2.964 2.964v1.481h-5.927v-1.481zM21.333 26.37c0 0.001 0 0.001 0 0.002 0 0.818-0.663 1.481-1.481 1.481h-14.816c-0.818 0-1.481-0.663-1.481-1.481 0-0.001 0-0.001 0-0.002v0-14.814h2.964v1.481c0 0.818 0.663 1.481 1.481 1.481s1.481-0.663 1.481-1.481v0-1.481h5.927v1.481c0 0.818 0.663 1.481 1.481 1.481s1.481-0.663 1.481-1.481v0-1.481h2.964v14.814z"></path>
</symbol>
<symbol id="icon-gerb" viewBox="0 0 20 32">
<path fill="#fff" style="fill: var(--color5, #fff)" d="M9.005 30.888c-1.738-1.269-2.974-3.137-3.405-5.296l-0.009-0.055h-5.591v-23.117c2.991 1.443 5.153 4.6 5.388 7.876l0.845 6.493-0.407-0.045c-0.893 0-1.676 0.812-1.676 1.608 0 0.752 0.595 1.383 1.379 1.548l1.018 0.226c1.675-3.051 2.63-6.042 2.63-8.973 0-2.646-0.36-5.291-0.422-7.997 0-1.202 0.485-2.3 1.253-3.156 0.783 0.857 1.253 1.954 1.253 3.156 0 2.706-0.423 5.351-0.423 7.997 0 2.93 0.955 5.922 2.631 8.973l1.018-0.226c0.783-0.165 1.378-0.811 1.378-1.548 0-0.811-0.783-1.608-1.675-1.608l-0.423 0.060 0.845-6.493c0.423-3.277 2.398-6.448 5.388-7.876v23.117h-5.576c-0.422 2.18-1.613 4.148-3.414 5.35-0.423 0.286-0.783 0.632-1.018 1.098-0.22-0.466-0.58-0.812-0.987-1.112zM2.647 17.556c0.235-0.857 0.893-1.609 1.738-2.075l-0.658-5.35c-0.246-1.699-0.975-3.195-2.043-4.382l0.007 0.008v11.783h0.956v0.015zM5.466 23.929c0-0.812 0.125-1.548 0.298-2.3l-0.784-0.18c-1.143-0.346-2.036-1.203-2.333-2.3h-0.957v4.78h3.775zM9.178 23.929c0-0.977-0.783-1.834-1.801-1.954-0.173 0.63-0.298 1.262-0.298 1.954h2.099zM9.178 25.552h-1.864c0.298 1.262 0.955 2.42 1.864 3.397v-3.397zM11.808 20.547c-0.72-1.263-1.377-2.585-1.8-3.968-0.423 1.383-1.080 2.705-1.801 3.968 0.72 0.165 1.315 0.631 1.8 1.157 0.486-0.526 1.082-0.992 1.802-1.157zM12.952 23.929c0-0.692-0.125-1.323-0.297-1.954-1.018 0.12-1.801 0.977-1.801 1.954h2.098zM12.717 25.552h-1.863v3.397c0.908-0.992 1.566-2.135 1.863-3.397zM18.34 23.929v-4.78h-0.956c-0.297 1.097-1.206 1.954-2.333 2.3l-0.783 0.18c0.172 0.752 0.297 1.488 0.297 2.3h3.775zM18.34 17.556v-11.8c-1.080 1.203-1.864 2.706-2.036 4.375l-0.658 5.35c0.846 0.466 1.504 1.203 1.738 2.075h0.956z"></path>
</symbol>
<symbol id="icon-arrow-down2" viewBox="0 0 56 32">
<path fill="#4f2ee8" style="fill: var(--color3, #4f2ee8)" d="M25.4 21.132c0.664 0.668 1.584 1.081 2.6 1.081s1.936-0.413 2.6-1.081l0-0 16.8-16.828c0.664-0.668 1.584-1.082 2.6-1.082 2.025 0 3.666 1.641 3.666 3.666 0 1.008-0.407 1.921-1.066 2.584l-16.824 16.832c-1.99 1.987-4.738 3.216-7.772 3.216s-5.782-1.229-7.772-3.216l-16.836-16.832c-0.658-0.663-1.064-1.576-1.064-2.584 0-2.026 1.642-3.668 3.668-3.668 1.018 0 1.939 0.415 2.604 1.084l0 0 16.792 16.828z"></path>
</symbol>
</defs>
</svg>
